<svg width="23" height="42" viewBox="0 0 23 42" fill="none" xmlns="http://www.w3.org/2000/svg">
<mask id="path-1-outside-1_154_279" maskUnits="userSpaceOnUse" x="-1" y="-1" width="24" height="44" fill="black">
<rect fill="white" x="-1" y="-1" width="24" height="44"/>
<path d="M0.24975 42V0.529998H3.03375V39.448H22.1158V42H0.24975Z"/>
</mask>
<path d="M0.24975 42V0.529998H3.03375V39.448H22.1158V42H0.24975Z" fill="white"/>
<path d="M0.24975 42H-0.45025V42.7H0.24975V42ZM0.24975 0.529998V-0.170002H-0.45025V0.529998H0.24975ZM3.03375 0.529998H3.73375V-0.170002H3.03375V0.529998ZM3.03375 39.448H2.33375V40.148H3.03375V39.448ZM22.1158 39.448H22.8158V38.748H22.1158V39.448ZM22.1158 42V42.7H22.8158V42H22.1158ZM0.94975 42V0.529998H-0.45025V42H0.94975ZM0.24975 1.23H3.03375V-0.170002H0.24975V1.23ZM2.33375 0.529998V39.448H3.73375V0.529998H2.33375ZM3.03375 40.148H22.1158V38.748H3.03375V40.148ZM21.4158 39.448V42H22.8158V39.448H21.4158ZM22.1158 41.3H0.24975V42.7H22.1158V41.3Z" fill="black" mask="url(#path-1-outside-1_154_279)"/>
</svg>
