<svg width="273" height="74" viewBox="0 0 273 74" fill="none" xmlns="http://www.w3.org/2000/svg">
<path d="M9.28914 68V25.1H12.1691V65.36H31.9091V68H9.28914ZM70.5477 63.98C67.9077 67.06 63.8877 68.6 58.4877 68.6C53.0877 68.6 49.0677 67.06 46.4277 63.98C43.7877 60.9 42.4677 56.64 42.4677 51.2V29.06H45.2277V51.2C45.2277 61.16 49.6477 66.14 58.4877 66.14C67.3277 66.14 71.7477 61.16 71.7477 51.2V29.06H74.5077V51.2C74.5077 56.64 73.1877 60.9 70.5477 63.98ZM123.031 66.08C120.031 67.76 115.851 68.6 110.491 68.6C105.171 68.6 100.471 66.68 96.3909 62.84C92.3509 59 90.3309 54.24 90.3309 48.56C90.3309 42.84 92.0909 38.06 95.6109 34.22C99.1709 30.38 103.751 28.46 109.351 28.46C113.871 28.46 118.291 29.16 122.611 30.56L121.891 32.84C117.731 31.56 113.431 30.92 108.991 30.92C104.551 30.92 100.811 32.62 97.7709 36.02C94.7709 39.38 93.2709 43.52 93.2709 48.44C93.2709 53.32 95.0109 57.48 98.4909 60.92C102.011 64.36 106.071 66.08 110.671 66.08C115.271 66.08 119.091 65.44 122.131 64.16L123.031 66.08ZM138.988 54.5L133.408 68H130.588L146.908 28.82H148.528L164.968 68H161.908L156.268 54.5H138.988ZM147.568 33.26C146.968 35.06 146.428 36.56 145.948 37.76L139.948 52.16H155.308L149.368 37.82C148.448 35.58 147.848 34.06 147.568 33.26ZM177.068 68V28.82H178.388L203.948 58.22C204.868 59.26 205.708 60.3 206.468 61.34C207.268 62.34 207.688 62.86 207.728 62.9C207.648 61.94 207.608 60.06 207.608 57.26V29.06H210.368V68.24H209.048L183.008 38.36L179.708 34.34C179.788 35.14 179.828 37.02 179.828 39.98V68H177.068ZM246.184 68.6C240.624 68.6 235.964 66.66 232.204 62.78C228.444 58.9 226.564 54.16 226.564 48.56C226.564 42.92 228.444 38.16 232.204 34.28C235.964 30.4 240.624 28.46 246.184 28.46C251.744 28.46 256.404 30.4 260.164 34.28C263.924 38.16 265.804 42.92 265.804 48.56C265.804 54.16 263.924 58.9 260.164 62.78C256.404 66.66 251.744 68.6 246.184 68.6ZM246.184 30.92C241.384 30.92 237.384 32.62 234.184 36.02C231.024 39.42 229.444 43.6 229.444 48.56C229.444 53.48 231.024 57.64 234.184 61.04C237.384 64.4 241.384 66.08 246.184 66.08C251.024 66.08 255.024 64.4 258.184 61.04C261.344 57.64 262.924 53.48 262.924 48.56C262.924 43.6 261.344 39.42 258.184 36.02C255.024 32.62 251.024 30.92 246.184 30.92Z" fill="white"/>
<path fill-rule="evenodd" clip-rule="evenodd" d="M265 49C265 59.4934 256.493 68 246 68C235.507 68 227 59.4934 227 49C227 38.5066 235.507 30 246 30C256.493 30 265 38.5066 265 49ZM246 55C249.314 55 252 52.3137 252 49C252 45.6863 249.314 43 246 43C242.686 43 240 45.6863 240 49C240 52.3137 242.686 55 246 55ZM250.975 36.9896C249.398 36.3363 247.707 36 246 36V35C247.839 35 249.659 35.3621 251.358 36.0657C253.056 36.7693 254.599 37.8005 255.899 39.1005C257.2 40.4005 258.231 41.9439 258.934 43.6424C259.638 45.341 260 47.1615 260 49H259C259 47.2928 258.664 45.6023 258.01 44.0251C257.357 42.4479 256.4 41.0148 255.192 39.8076C253.985 38.6005 252.552 37.6429 250.975 36.9896ZM233.99 53.9749C233.336 52.3977 233 50.7072 233 49H232C232 50.8385 232.362 52.659 233.066 54.3576C233.769 56.0561 234.8 57.5995 236.101 58.8995C237.401 60.1995 238.944 61.2307 240.642 61.9343C242.341 62.6379 244.161 63 246 63V62C244.293 62 242.602 61.6637 241.025 61.0104C239.448 60.3571 238.015 59.3995 236.808 58.1924C235.6 56.9852 234.643 55.5521 233.99 53.9749ZM249.827 39.7612C248.614 39.2587 247.313 39 246 39V38C247.445 38 248.875 38.2845 250.21 38.8373C251.544 39.3901 252.757 40.2004 253.778 41.2218C254.8 42.2433 255.61 43.4559 256.163 44.7905C256.715 46.1251 257 47.5555 257 49H256C256 47.6868 255.741 46.3864 255.239 45.1732C254.736 43.9599 254 42.8575 253.071 41.9289C252.142 41.0003 251.04 40.2638 249.827 39.7612ZM236.761 52.8268C236.259 51.6136 236 50.3132 236 49H235C235 50.4445 235.285 51.8749 235.837 53.2095C236.39 54.5441 237.2 55.7567 238.222 56.7782C239.243 57.7996 240.456 58.6099 241.79 59.1627C243.125 59.7155 244.555 60 246 60V59C244.687 59 243.386 58.7413 242.173 58.2388C240.96 57.7362 239.858 56.9997 238.929 56.0711C238 55.1425 237.264 54.0401 236.761 52.8268Z" fill="white"/>
<path d="M240.331 20.02C242.963 20.02 245.072 19.3107 246.659 17.892C248.264 16.4547 249.067 14.2987 249.067 11.424C249.067 8.54933 248.161 6.26267 246.351 4.564C244.559 2.86533 242.337 2.016 239.687 2.016C237.988 2.016 236.513 2.06267 235.263 2.156V19.796C236.476 19.9453 238.165 20.02 240.331 20.02ZM239.687 0.783998C242.767 0.783998 245.343 1.74533 247.415 3.668C249.487 5.572 250.523 8.16667 250.523 11.452C250.523 13.1133 250.252 14.588 249.711 15.876C249.188 17.1453 248.46 18.1627 247.527 18.928C245.604 20.4773 243.205 21.252 240.331 21.252C238.445 21.252 236.308 21.1493 233.919 20.944V0.979999C235.823 0.849332 237.745 0.783998 239.687 0.783998ZM256.751 18.76V0.979999H258.095V17.864C258.095 20.3653 257.572 22.3627 256.527 23.856C256.004 24.6213 255.472 25.256 254.931 25.76C254.389 26.2827 253.727 26.824 252.943 27.384L252.355 26.516C255.285 24.3693 256.751 21.784 256.751 18.76Z" fill="white"/>
<circle cx="246" cy="49" r="1.5" stroke="white"/>
</svg>
