<svg width="316" height="316" viewBox="0 0 316 316" fill="none" xmlns="http://www.w3.org/2000/svg">
<g filter="url(#filter0_d_106_353)">
<rect x="8" y="7" width="300" height="300" rx="40" fill="black" fill-opacity="0.45"/>
<path d="M158.5 116V266" stroke="url(#paint0_linear_106_353)" stroke-width="6" stroke-linecap="round"/>
<path d="M69 191H42" stroke="url(#paint1_linear_106_353)" stroke-width="6" stroke-linecap="round"/>
<path d="M208 247H109" stroke="url(#paint2_linear_106_353)" stroke-width="6" stroke-linecap="round"/>
<path d="M225 225L93 225" stroke="url(#paint3_linear_106_353)" stroke-width="6" stroke-linecap="round"/>
<path d="M233 202L85 202" stroke="url(#paint4_linear_106_353)" stroke-width="6" stroke-linecap="round"/>
<path d="M225 157L92 157" stroke="url(#paint5_linear_106_353)" stroke-width="6" stroke-linecap="round"/>
<path d="M232 179L84 179" stroke="url(#paint6_linear_106_353)" stroke-width="6" stroke-linecap="round"/>
<path d="M208 135H109" stroke="url(#paint7_linear_106_353)" stroke-width="6" stroke-linecap="round"/>
<path d="M211.682 169.227C207.619 150.977 198.528 135.642 186.446 126.168C174.411 116.731 160.29 113.777 146.847 117.668C133.344 121.576 121.211 132.199 113.08 147.739C104.95 163.276 101.529 182.405 103.583 201.251C105.638 220.103 112.995 237.075 124.002 248.815C134.986 260.53 148.714 266.117 162.407 264.814C176.123 263.509 189.193 255.346 198.867 241.577C208.547 227.798 214 209.552 214 190.5" stroke="url(#paint8_linear_106_353)" stroke-width="6" stroke-linecap="round"/>
<path d="M131.785 159.387C128.459 177.107 128.096 197.235 130.782 215.594C133.48 234.033 138.989 248.9 145.868 257.409C149.285 261.635 152.737 263.924 155.948 264.694C159.071 265.443 162.345 264.849 165.733 262.543C172.768 257.754 179.339 246.177 183.529 229.363C187.676 212.718 189.012 192.835 187.227 173.833C185.436 154.785 180.675 138.375 174.134 127.847C170.869 122.591 167.407 119.198 164.06 117.451C160.806 115.753 157.566 115.549 154.325 116.819C150.972 118.132 147.51 121.073 144.219 125.79C140.943 130.485 137.962 136.764 135.511 144.429" stroke="url(#paint9_linear_106_353)" stroke-width="6" stroke-linecap="round"/>
<circle cx="158.5" cy="190.5" r="75.5" stroke="url(#paint10_linear_106_353)" stroke-width="6"/>
<circle cx="13.5" cy="13.5" r="10.5" transform="matrix(1 0 0 -1 145 118)" stroke="url(#paint11_linear_106_353)" stroke-width="6"/>
<path d="M158.5 33.999V97.001" stroke="url(#paint12_linear_106_353)" stroke-width="6" stroke-linecap="round"/>
<path d="M275 191H248" stroke="url(#paint13_linear_106_353)" stroke-width="6" stroke-linecap="round"/>
<path d="M256 217L244 213" stroke="url(#paint14_linear_106_353)" stroke-width="6" stroke-linecap="round"/>
<path d="M256 164L244 168" stroke="url(#paint15_linear_106_353)" stroke-width="6" stroke-linecap="round"/>
<path d="M73 168L61.0001 164" stroke="url(#paint16_linear_106_353)" stroke-width="6" stroke-linecap="round"/>
<path d="M61 217L72.9999 213" stroke="url(#paint17_linear_106_353)" stroke-width="6" stroke-linecap="round"/>
</g>
<defs>
<filter id="filter0_d_106_353" x="0" y="0" width="316" height="316" filterUnits="userSpaceOnUse" color-interpolation-filters="sRGB">
<feFlood flood-opacity="0" result="BackgroundImageFix"/>
<feColorMatrix in="SourceAlpha" type="matrix" values="0 0 0 0 0 0 0 0 0 0 0 0 0 0 0 0 0 0 127 0" result="hardAlpha"/>
<feOffset dy="1"/>
<feGaussianBlur stdDeviation="4"/>
<feComposite in2="hardAlpha" operator="out"/>
<feColorMatrix type="matrix" values="0 0 0 0 0.819608 0 0 0 0 0.639216 0 0 0 0 0.25098 0 0 0 0.6 0"/>
<feBlend mode="normal" in2="BackgroundImageFix" result="effect1_dropShadow_106_353"/>
<feBlend mode="normal" in="SourceGraphic" in2="effect1_dropShadow_106_353" result="shape"/>
</filter>
<linearGradient id="paint0_linear_106_353" x1="158" y1="116" x2="158" y2="263.5" gradientUnits="userSpaceOnUse">
<stop stop-color="#AA771C"/>
<stop offset="1" stop-color="#D1A340"/>
</linearGradient>
<linearGradient id="paint1_linear_106_353" x1="39" y1="191" x2="71" y2="191" gradientUnits="userSpaceOnUse">
<stop stop-color="#AA771C"/>
<stop offset="1" stop-color="#D1A340"/>
</linearGradient>
<linearGradient id="paint2_linear_106_353" x1="211.5" y1="247" x2="111.5" y2="247" gradientUnits="userSpaceOnUse">
<stop stop-color="#AA771C"/>
<stop offset="1" stop-color="#D1A340"/>
</linearGradient>
<linearGradient id="paint3_linear_106_353" x1="222.5" y1="225" x2="93" y2="225" gradientUnits="userSpaceOnUse">
<stop stop-color="#AA771C"/>
<stop offset="1" stop-color="#D1A340"/>
</linearGradient>
<linearGradient id="paint4_linear_106_353" x1="233" y1="202" x2="85" y2="202" gradientUnits="userSpaceOnUse">
<stop stop-color="#AA771C"/>
<stop offset="1" stop-color="#D1A340"/>
</linearGradient>
<linearGradient id="paint5_linear_106_353" x1="219" y1="157" x2="95.5" y2="157" gradientUnits="userSpaceOnUse">
<stop stop-color="#AA771C"/>
<stop offset="1" stop-color="#D1A340"/>
</linearGradient>
<linearGradient id="paint6_linear_106_353" x1="232" y1="179" x2="84" y2="179" gradientUnits="userSpaceOnUse">
<stop stop-color="#AA771C"/>
<stop offset="1" stop-color="#D1A340"/>
</linearGradient>
<linearGradient id="paint7_linear_106_353" x1="180.5" y1="135" x2="103.5" y2="135" gradientUnits="userSpaceOnUse">
<stop stop-color="#AA771C"/>
<stop offset="1" stop-color="#D1A340"/>
</linearGradient>
<linearGradient id="paint8_linear_106_353" x1="158.5" y1="268" x2="158.5" y2="113" gradientUnits="userSpaceOnUse">
<stop stop-color="#AA771C"/>
<stop offset="1" stop-color="#D1A340"/>
</linearGradient>
<linearGradient id="paint9_linear_106_353" x1="158.5" y1="268" x2="158.5" y2="113" gradientUnits="userSpaceOnUse">
<stop stop-color="#AA771C"/>
<stop offset="1" stop-color="#D1A340"/>
</linearGradient>
<linearGradient id="paint10_linear_106_353" x1="158" y1="269" x2="158" y2="116" gradientUnits="userSpaceOnUse">
<stop stop-color="#AA771C"/>
<stop offset="1" stop-color="#D1A340"/>
</linearGradient>
<linearGradient id="paint11_linear_106_353" x1="13" y1="24" x2="13" y2="3" gradientUnits="userSpaceOnUse">
<stop stop-color="#AA771C"/>
<stop offset="1" stop-color="#D1A340"/>
</linearGradient>
<linearGradient id="paint12_linear_106_353" x1="158" y1="41.5" x2="158" y2="103" gradientUnits="userSpaceOnUse">
<stop stop-color="#AA771C"/>
<stop offset="1" stop-color="#D1A340"/>
</linearGradient>
<linearGradient id="paint13_linear_106_353" x1="278" y1="191" x2="244" y2="191" gradientUnits="userSpaceOnUse">
<stop stop-color="#AA771C"/>
<stop offset="1" stop-color="#D1A340"/>
</linearGradient>
<linearGradient id="paint14_linear_106_353" x1="260" y1="217" x2="244" y2="213" gradientUnits="userSpaceOnUse">
<stop stop-color="#AA771C"/>
<stop offset="1" stop-color="#D1A340"/>
</linearGradient>
<linearGradient id="paint15_linear_106_353" x1="256" y1="164" x2="242.5" y2="169.5" gradientUnits="userSpaceOnUse">
<stop stop-color="#AA771C"/>
<stop offset="1" stop-color="#D1A340"/>
</linearGradient>
<linearGradient id="paint16_linear_106_353" x1="57" y1="164" x2="74.5" y2="169" gradientUnits="userSpaceOnUse">
<stop stop-color="#AA771C"/>
<stop offset="1" stop-color="#D1A340"/>
</linearGradient>
<linearGradient id="paint17_linear_106_353" x1="58.5" y1="217" x2="75.5" y2="213" gradientUnits="userSpaceOnUse">
<stop stop-color="#AA771C"/>
<stop offset="1" stop-color="#D1A340"/>
</linearGradient>
</defs>
</svg>
